<?xml version="1.0" encoding="UTF-8" standalone="no"?>
<svg
   xmlns:dc="http://purl.org/dc/elements/1.1/"
   xmlns:cc="http://creativecommons.org/ns#"
   xmlns:rdf="http://www.w3.org/1999/02/22-rdf-syntax-ns#"
   xmlns:svg="http://www.w3.org/2000/svg"
   xmlns="http://www.w3.org/2000/svg"
   xmlns:sodipodi="http://sodipodi.sourceforge.net/DTD/sodipodi-0.dtd"
   xmlns:inkscape="http://www.inkscape.org/namespaces/inkscape"
   height="40"
   viewBox="0 0 26.666667 26.666667"
   width="40"
   version="1.1"
   id="svg6"
   sodipodi:docname="bell_white.svg"
   style="fill:#ffffff"
   inkscape:version="0.92.2 2405546, 2018-03-11">
  <metadata
     id="metadata12">
    <rdf:RDF>
      <cc:Work
         rdf:about="">
        <dc:format>image/svg+xml</dc:format>
        <dc:type
           rdf:resource="http://purl.org/dc/dcmitype/StillImage" />
        <dc:title></dc:title>
      </cc:Work>
    </rdf:RDF>
  </metadata>
  <defs
     id="defs10" />
  <sodipodi:namedview
     pagecolor="#ffffff"
     bordercolor="#666666"
     borderopacity="1"
     objecttolerance="10"
     gridtolerance="10"
     guidetolerance="10"
     inkscape:pageopacity="0"
     inkscape:pageshadow="2"
     inkscape:window-width="1061"
     inkscape:window-height="638"
     id="namedview8"
     showgrid="false"
     inkscape:pagecheckerboard="true"
     inkscape:zoom="6.5555556"
     inkscape:cx="18"
     inkscape:cy="18"
     inkscape:window-x="0"
     inkscape:window-y="0"
     inkscape:window-maximized="0"
     inkscape:current-layer="svg6" />
  <path
     d="M 0,2.6666667 H 24 V 26.666667 H 0 Z"
     id="path2"
     inkscape:connector-curvature="0"
     style="fill:none" />
  <path
     d="M 9.7866936,6.6297437 8.6392513,5.4564103 C 6.7134739,6.9579486 5.4456705,9.2717946 5.3333335,11.897437 H 6.938148 C 7.058509,9.7230776 8.1497829,7.8194876 9.7866936,6.6297437 Z m 9.9418254,5.2676933 h 1.604815 C 21.212972,9.2717946 19.94517,6.9579486 18.027415,5.4564103 l -1.139418,1.1733334 c 1.620863,1.1897439 2.720162,3.0933339 2.840522,5.2676933 z m -1.580743,0.410256 c 0,-2.5189744 -1.315946,-4.6276934 -3.610832,-5.1856414 v -0.557949 c 0,-0.6810256 -0.537613,-1.2307692 -1.203611,-1.2307692 -0.665997,0 -1.20361,0.5497436 -1.20361,1.2307692 v 0.557949 C 9.826814,7.6799996 8.5188902,9.7805136 8.5188902,12.307693 v 4.102564 l -1.6048145,1.641026 v 0.820513 H 19.752591 v -0.820513 l -1.604815,-1.641026 z m -4.814443,9.025641 c 0.112337,0 0.21665,-0.0082 0.320963,-0.03282 0.521566,-0.114871 0.946841,-0.475897 1.155467,-0.968205 0.08024,-0.196923 0.120361,-0.410256 0.120361,-0.64 h -3.209629 c 0.008,0.902564 0.722167,1.641026 1.612838,1.641025 z"
     id="path4"
     inkscape:connector-curvature="0"
     style="stroke-width:0.81140953" />
</svg>
