<?xml version="1.0" encoding="UTF-8" standalone="no"?>
<svg
   xmlns:dc="http://purl.org/dc/elements/1.1/"
   xmlns:cc="http://creativecommons.org/ns#"
   xmlns:rdf="http://www.w3.org/1999/02/22-rdf-syntax-ns#"
   xmlns:svg="http://www.w3.org/2000/svg"
   xmlns="http://www.w3.org/2000/svg"
   xmlns:sodipodi="http://sodipodi.sourceforge.net/DTD/sodipodi-0.dtd"
   xmlns:inkscape="http://www.inkscape.org/namespaces/inkscape"
   width="36"
   height="36"
   viewBox="0 0 36 36"
   version="1.1"
   id="svg4"
   sodipodi:docname="chip_white.svg"
   inkscape:version="0.92.2 2405546, 2018-03-11">
  <metadata
     id="metadata10">
    <rdf:RDF>
      <cc:Work
         rdf:about="">
        <dc:format>image/svg+xml</dc:format>
        <dc:type
           rdf:resource="http://purl.org/dc/dcmitype/StillImage" />
        <dc:title></dc:title>
      </cc:Work>
    </rdf:RDF>
  </metadata>
  <defs
     id="defs8" />
  <sodipodi:namedview
     pagecolor="#ffffff"
     bordercolor="#666666"
     borderopacity="1"
     objecttolerance="10"
     gridtolerance="10"
     guidetolerance="10"
     inkscape:pageopacity="0"
     inkscape:pageshadow="2"
     inkscape:window-width="1920"
     inkscape:window-height="1023"
     id="namedview6"
     showgrid="false"
     inkscape:zoom="13.906433"
     inkscape:cx="8.6464856"
     inkscape:cy="19.069444"
     inkscape:window-x="0"
     inkscape:window-y="0"
     inkscape:window-maximized="1"
     inkscape:current-layer="svg4"
     inkscape:pagecheckerboard="true" />
  <path
     d="m 21.99999,14.000001 h -7.999995 v 8.000002 h 7.999995 z m -2.666655,5.333335 h -2.66667 v -2.666667 h 2.66667 z M 30,16.666669 v -2.666668 h -2.66667 v -2.666668 c 0,-1.4666667 -1.2,-2.6666667 -2.66667,-2.6666667 h -2.66667 v -2.666667 h -2.666655 v 2.666667 h -2.66667 v -2.666667 h -2.66667 v 2.666667 h -2.66667 c -1.4666698,0 -2.6666698,1.2 -2.6666698,2.6666667 v 2.666668 H 6.0000001 v 2.666668 h 2.6666551 v 2.666667 H 6.0000001 v 2.666667 h 2.6666551 v 2.666665 c 0,1.466667 1.2,2.666666 2.6666698,2.666666 h 2.66667 v 2.666667 h 2.66667 v -2.666667 h 2.66667 v 2.666667 h 2.666655 v -2.666667 h 2.66667 c 1.46667,0 2.66667,-1.199999 2.66667,-2.666666 V 22.000003 H 30 v -2.666667 h -2.66667 v -2.666667 z m -5.33334,7.999999 H 11.333325 V 11.333333 H 24.66666 Z"
     id="path4"
     inkscape:connector-curvature="0"
     style="fill:#ffffff;stroke-width:1.33333337" />
</svg>
