<?xml version="1.0" encoding="UTF-8" standalone="no"?>
<svg
   xmlns:dc="http://purl.org/dc/elements/1.1/"
   xmlns:cc="http://creativecommons.org/ns#"
   xmlns:rdf="http://www.w3.org/1999/02/22-rdf-syntax-ns#"
   xmlns:svg="http://www.w3.org/2000/svg"
   xmlns="http://www.w3.org/2000/svg"
   xmlns:sodipodi="http://sodipodi.sourceforge.net/DTD/sodipodi-0.dtd"
   xmlns:inkscape="http://www.inkscape.org/namespaces/inkscape"
   height="36"
   viewBox="0 0 18 18"
   width="36"
   version="1.1"
   id="svg6"
   sodipodi:docname="connection_white.svg"
   inkscape:version="0.92.2 5c3e80d, 2017-08-06"
   style="fill:#ffffff">
  <metadata
     id="metadata12">
    <rdf:RDF>
      <cc:Work
         rdf:about="">
        <dc:format>image/svg+xml</dc:format>
        <dc:type
           rdf:resource="http://purl.org/dc/dcmitype/StillImage" />
        <dc:title></dc:title>
      </cc:Work>
    </rdf:RDF>
  </metadata>
  <defs
     id="defs10" />
  <sodipodi:namedview
     pagecolor="#ffffff"
     bordercolor="#666666"
     borderopacity="1"
     objecttolerance="10"
     gridtolerance="10"
     guidetolerance="10"
     inkscape:pageopacity="0"
     inkscape:pageshadow="2"
     inkscape:window-width="886"
     inkscape:window-height="604"
     id="namedview8"
     showgrid="false"
     inkscape:zoom="6.9532167"
     inkscape:cx="23.042498"
     inkscape:cy="21.908372"
     inkscape:window-x="809"
     inkscape:window-y="193"
     inkscape:window-maximized="0"
     inkscape:current-layer="svg6" />
  <path
     d="M 0,-6 H 24 V 18 H 0 Z"
     id="path2"
     inkscape:connector-curvature="0"
     style="fill:none" />
  <path
     d="M 8.995,4 C 6.235,4 4,6.24 4,9 4,11.76 6.235,14 8.995,14 11.76,14 14,11.76 14,9 14,6.24 11.76,4 8.995,4 Z M 12.46,7 H 10.985 C 10.825,6.375 10.595,5.775 10.295,5.22 11.215,5.535 11.98,6.175 12.46,7 Z M 9,5.02 C 9.415,5.62 9.74,6.285 9.955,7 H 8.045 C 8.26,6.285 8.585,5.62 9,5.02 Z M 5.13,10 C 5.05,9.68 5,9.345 5,9 5,8.655 5.05,8.32 5.13,8 H 6.82 C 6.78,8.33 6.75,8.66 6.75,9 c 0,0.34 0.03,0.67 0.07,1 z m 0.41,1 h 1.475 c 0.16,0.625 0.39,1.225 0.69,1.78 C 6.785,12.465 6.02,11.83 5.54,11 Z M 7.015,7 H 5.54 C 6.02,6.17 6.785,5.535 7.705,5.22 7.405,5.775 7.175,6.375 7.015,7 Z M 9,12.98 C 8.585,12.38 8.26,11.715 8.045,11 h 1.91 C 9.74,11.715 9.415,12.38 9,12.98 Z M 10.17,10 H 7.83 C 7.785,9.67 7.75,9.34 7.75,9 7.75,8.66 7.785,8.325 7.83,8 h 2.34 c 0.045,0.325 0.08,0.66 0.08,1 0,0.34 -0.035,0.67 -0.08,1 z m 0.125,2.78 c 0.3,-0.555 0.53,-1.155 0.69,-1.78 h 1.475 c -0.48,0.825 -1.245,1.465 -2.165,1.78 z M 11.18,10 c 0.04,-0.33 0.07,-0.66 0.07,-1 0,-0.34 -0.03,-0.67 -0.07,-1 h 1.69 C 12.95,8.32 13,8.655 13,9 c 0,0.345 -0.05,0.68 -0.13,1 z"
     id="path4"
     inkscape:connector-curvature="0"
     style="stroke-width:0.5" />
</svg>
