<?xml version="1.0" encoding="UTF-8" standalone="no"?>
<!-- Created with Inkscape (http://www.inkscape.org/) -->

<svg
   xmlns:dc="http://purl.org/dc/elements/1.1/"
   xmlns:cc="http://creativecommons.org/ns#"
   xmlns:rdf="http://www.w3.org/1999/02/22-rdf-syntax-ns#"
   xmlns:svg="http://www.w3.org/2000/svg"
   xmlns="http://www.w3.org/2000/svg"
   xmlns:sodipodi="http://sodipodi.sourceforge.net/DTD/sodipodi-0.dtd"
   xmlns:inkscape="http://www.inkscape.org/namespaces/inkscape"
   width="36"
   height="36"
   viewBox="0 0 33.749995 33.749995"
   id="svg2"
   version="1.1"
   inkscape:version="0.92.2 5c3e80d, 2017-08-06"
   sodipodi:docname="disk.svg">
  <sodipodi:namedview
     id="base"
     pagecolor="#ffffff"
     bordercolor="#666666"
     borderopacity="1.0"
     inkscape:pageopacity="0"
     inkscape:pageshadow="2"
     inkscape:zoom="11.313709"
     inkscape:cx="10.527986"
     inkscape:cy="24.864723"
     inkscape:document-units="px"
     inkscape:current-layer="layer1"
     showgrid="false"
     inkscape:window-width="2560"
     inkscape:window-height="1023"
     inkscape:window-x="0"
     inkscape:window-y="0"
     inkscape:window-maximized="1"
     fit-margin-top="0"
     fit-margin-left="0"
     fit-margin-right="0"
     fit-margin-bottom="0"
     inkscape:pagecheckerboard="true"
     units="px" />
  <defs
     id="defs4" />
  <metadata
     id="metadata7">
    <rdf:RDF>
      <cc:Work
         rdf:about="">
        <dc:format>image/svg+xml</dc:format>
        <dc:type
           rdf:resource="http://purl.org/dc/dcmitype/StillImage" />
        <dc:title></dc:title>
      </cc:Work>
    </rdf:RDF>
  </metadata>
  <g
     transform="translate(-172.04725,-692.43109)"
     id="layer1"
     inkscape:groupmode="layer"
     inkscape:label="Layer 1">
    <path
       style="opacity:1;fill:#ffffff;fill-rule:evenodd;stroke:#ffffff;stroke-width:0.04961897px;stroke-linecap:butt;stroke-linejoin:miter;stroke-opacity:1"
       d="m 188.94885,699.95709 a 9.3478887,9.3478887 0 0 0 -2.50152,0.33354 9.3478887,9.3478887 0 0 0 -6.53938,11.48922 9.3478887,9.3478887 0 0 0 11.48922,6.53938 9.3478887,9.3478887 0 0 0 6.53938,-11.48922 9.3478887,9.3478887 0 0 0 -8.9877,-6.87292 z m -0.003,1.18675 a 8.1611162,8.1611162 0 0 1 7.84669,6.00032 8.1611162,8.1611162 0 0 1 -5.70917,10.03063 8.1611162,8.1611162 0 0 1 -10.03063,-5.70917 8.1611162,8.1611162 0 0 1 5.70917,-10.03063 8.1611162,8.1611162 0 0 1 2.18394,-0.29115 z"
       id="path4139"
       inkscape:connector-curvature="0" />
    <path
       style="opacity:1;fill:#ffffff;fill-rule:evenodd;stroke:#ffffff;stroke-width:0.2414936;stroke-linecap:butt;stroke-linejoin:miter;stroke-opacity:1"
       d="m 186.76431,701.44383 a 8.1519045,8.1519045 0 0 0 -5.99346,7.91113 8.1519045,8.1519045 0 0 0 6.09034,7.83682 l 1.17799,-4.50706 a 3.4976211,3.4976211 0 0 1 -2.48976,-2.45381 3.4976211,3.4976211 0 0 1 2.44677,-4.29881 3.4976211,3.4976211 0 0 1 3.5e-4,-8e-5 z"
       id="path4185"
       inkscape:connector-curvature="0" />
    <path
       style="opacity:1;fill:#ffffff;fill-rule:evenodd;stroke:#ffffff;stroke-width:0.2414936;stroke-linecap:butt;stroke-linejoin:miter;stroke-opacity:1"
       d="m 191.0759,701.43267 -1.18031,4.51574 a 3.4976211,3.4976211 0 0 1 2.39941,2.43047 3.4976211,3.4976211 0 0 1 -2.36586,4.2722 l 1.24364,4.52955 a 8.1519045,8.1519045 0 0 0 5.99346,-7.91122 8.1519045,8.1519045 0 0 0 -6.09034,-7.83674 z"
       id="path4185-7"
       inkscape:connector-curvature="0" />
    <path
       style="opacity:1;fill:#ffffff;fill-rule:evenodd;stroke:#ffffff;stroke-width:0.05903782px;stroke-linecap:butt;stroke-linejoin:miter;stroke-opacity:1"
       d="m 188.9349,704.88773 a 4.4694549,4.4166432 0 0 0 -1.19602,0.1576 4.4694549,4.4166432 0 0 0 -3.12664,5.42832 4.4694549,4.4166432 0 0 0 5.49331,3.08977 4.4694549,4.4166432 0 0 0 3.12664,-5.42839 4.4694549,4.4166432 0 0 0 -4.29729,-3.2473 z m -0.003,1.09844 a 3.3579063,3.3182288 0 0 1 3.22846,2.43965 3.3579063,3.3182288 0 0 1 -2.34903,4.07832 3.3579063,3.3182288 0 0 1 -4.12709,-2.32128 3.3579063,3.3182288 0 0 1 2.34904,-4.07832 3.3579063,3.3182288 0 0 1 0.89862,-0.11837 z"
       id="path4143"
       inkscape:connector-curvature="0" />
    <circle
       transform="matrix(-0.26475702,-0.96431516,-0.96431516,0.26475702,0,0)"
       r="1.1638547"
       cy="5.612895"
       cx="-734.01178"
       id="path4143-6"
       style="opacity:1;fill:#ffffff;fill-rule:evenodd;stroke:#ffffff;stroke-width:0.0154652px;stroke-linecap:butt;stroke-linejoin:miter;stroke-opacity:1" />
  </g>
</svg>
