<?xml version="1.0" encoding="UTF-8" standalone="no"?>
<svg
   xmlns:dc="http://purl.org/dc/elements/1.1/"
   xmlns:cc="http://creativecommons.org/ns#"
   xmlns:rdf="http://www.w3.org/1999/02/22-rdf-syntax-ns#"
   xmlns:svg="http://www.w3.org/2000/svg"
   xmlns="http://www.w3.org/2000/svg"
   xmlns:sodipodi="http://sodipodi.sourceforge.net/DTD/sodipodi-0.dtd"
   xmlns:inkscape="http://www.inkscape.org/namespaces/inkscape"
   width="36"
   height="36"
   viewBox="0 0 36 36"
   version="1.1"
   id="svg6"
   sodipodi:docname="settings_reset_black.svg"
   inkscape:version="0.92.2 2405546, 2018-03-11">
  <metadata
     id="metadata12">
    <rdf:RDF>
      <cc:Work
         rdf:about="">
        <dc:format>image/svg+xml</dc:format>
        <dc:type
           rdf:resource="http://purl.org/dc/dcmitype/StillImage" />
        <dc:title></dc:title>
      </cc:Work>
    </rdf:RDF>
  </metadata>
  <defs
     id="defs10" />
  <sodipodi:namedview
     pagecolor="#ffffff"
     bordercolor="#666666"
     borderopacity="1"
     objecttolerance="10"
     gridtolerance="10"
     guidetolerance="10"
     inkscape:pageopacity="0"
     inkscape:pageshadow="2"
     inkscape:window-width="952"
     inkscape:window-height="677"
     id="namedview8"
     showgrid="false"
     inkscape:pagecheckerboard="true"
     inkscape:zoom="6.9532167"
     inkscape:cx="10.53836"
     inkscape:cy="11.880251"
     inkscape:window-x="240"
     inkscape:window-y="258"
     inkscape:window-maximized="0"
     inkscape:current-layer="svg6" />
  <path
     d="M 0,12 H 24 V 36 H 0 Z"
     id="path2"
     inkscape:connector-curvature="0"
     style="fill:none" />
  <path
     d="m 20.246234,18 c 0,-1.222222 -1,-2.222222 -2.222223,-2.222222 -1.222222,0 -2.222222,1 -2.222222,2.222222 0,1.222222 1,2.222222 2.222222,2.222222 1.222223,0 2.222223,-1 2.222223,-2.222222 z M 18.024011,8.0000001 C 12.501789,8.0000001 8.0240113,12.477778 8.0240113,18 H 4.690678 L 9.135122,22.444444 13.579567,18 h -3.333333 c 0,-4.3 3.477777,-7.777778 7.777777,-7.777778 4.3,0 7.777778,3.477778 7.777778,7.777778 0,4.3 -3.477778,7.777778 -7.777778,7.777778 -1.677777,0 -3.233333,-0.544445 -4.511111,-1.444445 l -1.577778,1.6 C 13.624011,27.222222 15.735122,28 18.024011,28 c 5.522223,0 10,-4.477778 10,-10 0,-5.522222 -4.477777,-10 -10,-9.9999999 z"
     id="path4"
     inkscape:connector-curvature="0"
     style="stroke-width:1.11111116" />
</svg>
