<?xml version="1.0" encoding="UTF-8" standalone="no"?>
<svg
   xmlns:svg="http://www.w3.org/2000/svg"
   xmlns="http://www.w3.org/2000/svg"
   xmlns:sodipodi="http://sodipodi.sourceforge.net/DTD/sodipodi-0.dtd"
   xmlns:inkscape="http://www.inkscape.org/namespaces/inkscape"
   fill="#000000"
   height="36"
   viewBox="0 0 24 24"
   width="36"
   version="1.1"
   id="svg6"
   sodipodi:docname="unlock_white.svg"
   inkscape:version="0.92.2 2405546, 2018-03-11">
  <defs
     id="defs10" />
  <sodipodi:namedview
     pagecolor="#000000"
     bordercolor="#666666"
     borderopacity="1"
     objecttolerance="10"
     gridtolerance="10"
     guidetolerance="10"
     inkscape:pageopacity="0"
     inkscape:pageshadow="2"
     inkscape:window-width="2560"
     inkscape:window-height="1023"
     id="namedview8"
     showgrid="false"
     inkscape:zoom="6.5555556"
     inkscape:cx="-7.4745759"
     inkscape:cy="17.389831"
     inkscape:window-x="0"
     inkscape:window-y="0"
     inkscape:window-maximized="1"
     inkscape:current-layer="svg6"
     inkscape:pagecheckerboard="true" />
  <path
     d="M0 0h24v24H0z"
     fill="none"
     id="path2" />
  <path
     d="m 11.746031,16.158731 c 0.698413,0 1.269841,-0.571429 1.269841,-1.269841 0,-0.698413 -0.571428,-1.269842 -1.269841,-1.269842 -0.698412,0 -1.269841,0.571429 -1.269841,1.269842 0,0.698412 0.571429,1.269841 1.269841,1.269841 z m 3.809524,-5.714286 H 14.920634 V 9.1746037 c 0,-1.7523813 -1.422222,-3.1746036 -3.174603,-3.1746036 -1.7523803,0 -3.1746025,1.4222223 -3.1746025,3.1746036 h 1.2063492 c 0,-1.0857143 0.8825393,-1.9682544 1.9682533,-1.9682544 1.085714,0 1.968254,0.8825401 1.968254,1.9682544 V 10.444445 H 7.9365079 c -0.6984127,0 -1.2698413,0.571429 -1.2698413,1.269841 v 6.349207 c 0,0.698412 0.5714286,1.269841 1.2698413,1.269841 h 7.6190471 c 0.698413,0 1.269841,-0.571429 1.269841,-1.269841 v -6.349207 c 0,-0.698412 -0.571428,-1.269841 -1.269841,-1.269841 z m 0,7.619048 H 7.9365079 v -6.349207 h 7.6190471 z"
     id="path4"
     inkscape:connector-curvature="0"
     style="stroke-width:0.63492066" />
</svg>
