<?xml version="1.0" encoding="UTF-8" standalone="no"?>
<svg
   xmlns:dc="http://purl.org/dc/elements/1.1/"
   xmlns:cc="http://creativecommons.org/ns#"
   xmlns:rdf="http://www.w3.org/1999/02/22-rdf-syntax-ns#"
   xmlns:svg="http://www.w3.org/2000/svg"
   xmlns="http://www.w3.org/2000/svg"
   xmlns:sodipodi="http://sodipodi.sourceforge.net/DTD/sodipodi-0.dtd"
   xmlns:inkscape="http://www.inkscape.org/namespaces/inkscape"
   height="23.999998"
   viewBox="0 0 15.999999 15.999999"
   width="23.999998"
   version="1.1"
   id="svg6"
   sodipodi:docname="bell.svg"
   style="fill:#000000"
   inkscape:version="0.91 r13725">
  <metadata
     id="metadata12">
    <rdf:RDF>
      <cc:Work
         rdf:about="">
        <dc:format>image/svg+xml</dc:format>
        <dc:type
           rdf:resource="http://purl.org/dc/dcmitype/StillImage" />
        <dc:title></dc:title>
      </cc:Work>
    </rdf:RDF>
  </metadata>
  <defs
     id="defs10" />
  <sodipodi:namedview
     pagecolor="#ffffff"
     bordercolor="#666666"
     borderopacity="1"
     objecttolerance="10"
     gridtolerance="10"
     guidetolerance="10"
     inkscape:pageopacity="0"
     inkscape:pageshadow="2"
     inkscape:window-width="1061"
     inkscape:window-height="638"
     id="namedview8"
     showgrid="false"
     inkscape:pagecheckerboard="true"
     inkscape:zoom="6.5555556"
     inkscape:cx="-16.38983"
     inkscape:cy="9.9999985"
     inkscape:window-x="0"
     inkscape:window-y="24"
     inkscape:window-maximized="0"
     inkscape:current-layer="svg6"
     fit-margin-top="0"
     fit-margin-left="0"
     fit-margin-right="0"
     fit-margin-bottom="0" />
  <path
     d="m -5.3333335,-2.6666667 23.9999995,0 0,24.0000007 -23.9999995,0 z"
     id="path2"
     inkscape:connector-curvature="0"
     style="fill:none" />
  <path
     d="M 4.4533601,1.2964103 3.3059178,0.1230769 C 1.3801404,1.6246152 0.112337,3.9384612 0,6.5641036 l 1.6048145,0 C 1.7251755,4.3897442 2.8164494,2.4861542 4.4533601,1.2964103 Z m 9.9418249,5.2676933 1.604815,0 C 15.879639,3.9384612 14.611837,1.6246152 12.694082,0.1230769 l -1.139418,1.1733334 c 1.620863,1.1897439 2.720162,3.0933339 2.840522,5.2676933 z m -1.580742,0.410256 c 0,-2.5189744 -1.315946,-4.6276934 -3.6108325,-5.1856414 l 0,-0.557949 C 9.2036105,0.5497436 8.6659975,0 7.9999995,0 c -0.665997,0 -1.20361,0.5497436 -1.20361,1.2307692 l 0,0.557949 c -2.302909,0.557948 -3.6108328,2.658462 -3.6108328,5.1856414 l 0,4.1025644 -1.6048145,1.641026 0,0.820513 12.8385148,0 0,-0.820513 -1.604814,-1.641026 z M 7.9999995,16.000001 c 0.112337,0 0.21665,-0.0082 0.320963,-0.03282 0.521566,-0.114871 0.946841,-0.475897 1.155467,-0.968205 0.08024,-0.196923 0.120361,-0.410256 0.120361,-0.64 l -3.209629,0 c 0.008,0.902564 0.722167,1.641026 1.612838,1.641025 z"
     id="path4"
     inkscape:connector-curvature="0"
     style="stroke-width:0.81140953" />
</svg>
